<?xml version="1.0" encoding="UTF-8" standalone="no"?>
<!DOCTYPE svg PUBLIC "-//W3C//DTD SVG 1.1//EN" "http://www.w3.org/Graphics/SVG/1.1/DTD/svg11.dtd">
<svg xmlns="http://www.w3.org/2000/svg" version="1.1" viewBox="0 0 138 124">
<path fill="#3e5eab" d="
  M 68.70 96.90
  A 0.29 0.29 0.0 0 0 69.20 96.90
  L 82.03 74.46
  Q 82.29 74.00 82.82 74.00
  L 94.52 74.00
  Q 95.23 74.00 94.87 74.62
  L 69.30 118.88
  Q 68.92 119.55 68.53 118.88
  L 4.61 9.67
  A 1.58 1.58 0.0 0 1 5.39 7.41
  Q 10.37 5.44 15.71 6.37
  Q 16.19 6.45 16.43 6.88
  L 68.70 96.90
  Z"
/>
<path fill="#3e5eab" d="
  M 55.41 51.70
  L 49.21 41.15
  A 0.44 0.44 0.0 0 1 49.21 40.71
  L 62.92 17.67
  A 0.44 0.44 0.0 0 0 62.55 17.00
  L 50.16 17.00
  A 0.44 0.44 0.0 0 0 49.78 17.21
  L 42.84 28.82
  A 0.44 0.44 0.0 0 1 42.08 28.82
  L 29.33 6.97
  A 0.44 0.44 0.0 0 1 29.71 6.31
  L 133.61 6.24
  A 0.44 0.44 0.0 0 1 133.99 6.91
  L 127.94 17.04
  A 0.44 0.44 0.0 0 1 127.56 17.25
  L 76.00 17.25
  A 0.44 0.44 0.0 0 0 75.61 17.47
  L 56.18 51.70
  A 0.44 0.44 0.0 0 1 55.41 51.70
  Z"
/>
<path fill="#3e5eab" d="
  M 63.94 60.44
  Q 72.79 44.88 81.79 29.62
  A 1.28 1.28 0.0 0 1 82.89 28.99
  L 120.77 28.98
  A 0.34 0.33 -74.4 0 1 121.05 29.49
  L 101.57 62.54
  A 0.93 0.93 0.0 0 1 100.77 63.00
  L 76.20 63.00
  A 0.95 0.95 0.0 0 0 75.39 63.45
  L 69.26 73.51
  Q 68.97 73.98 68.68 73.51
  Q 65.95 69.12 63.39 64.74
  C 62.14 62.60 62.92 62.23 63.94 60.44
  Z
  M 100.42 40.64
  Q 95.67 40.26 90.95 40.70
  Q 90.46 40.75 89.99 40.60
  C 88.51 40.11 83.89 49.15 82.93 50.74
  A 0.38 0.37 15.5 0 0 83.26 51.31
  L 94.26 51.22
  Q 94.77 51.22 95.03 50.78
  L 100.70 41.18
  A 0.36 0.36 0.0 0 0 100.42 40.64
  Z"
/>
</svg>
